<svg width="48" height="47" viewBox="0 0 48 47" fill="none" xmlns="http://www.w3.org/2000/svg">
<rect x="0.878784" width="47" height="47" rx="4" fill="#102233"/>
<path d="M19.2868 25.7618C17.8055 25.7618 16.5978 24.4159 16.5978 22.7695C16.5978 21.1216 17.7756 19.7757 19.2882 19.7757C20.7836 19.7757 22.0085 21.1216 21.9786 22.7695C21.9786 24.4159 20.7836 25.7618 19.2868 25.7618ZM29.2194 25.7604C27.7382 25.7604 26.5276 24.4145 26.5276 22.768C26.5276 21.1202 27.7083 19.7743 29.2194 19.7743C30.7149 19.7743 31.9397 21.1202 31.9112 22.768C31.9112 24.4145 30.7305 25.7604 29.2194 25.7604ZM21.5727 12.1959L21.134 11.394L20.231 11.545C18.1847 11.8862 16.193 12.4993 14.309 13.368L13.9843 13.5176L13.7821 13.8167C10.0605 19.3043 9.03933 24.7093 9.54494 30.0174L9.60049 30.5971L10.0705 30.9389C12.2598 32.5453 14.7051 33.7698 17.3028 34.5608L18.4279 34.9054L20.0131 31.0372C22.7334 31.7094 25.7528 31.7094 28.4717 31.0372L30.0483 34.9069L31.1735 34.5622C33.7733 33.773 36.2199 32.5473 38.4086 30.9375L38.8744 30.5985L38.9313 30.026C39.5523 23.8733 37.9386 18.5138 34.7184 13.8124L34.5162 13.5162L34.1915 13.368C32.3079 12.5033 30.3187 11.8903 28.2752 11.545L27.395 11.3983L26.9478 12.1703C26.8224 12.3839 26.6957 12.626 26.5732 12.8724C25.0282 12.7128 23.4709 12.7128 21.9259 12.8724C21.8048 12.6303 21.6838 12.3967 21.5727 12.1959ZM16.716 29.6984C16.9966 29.8608 17.2928 30.0203 17.5848 30.1656L16.9453 31.7265C15.2157 31.0961 13.5747 30.2449 12.063 29.1942C11.7425 24.725 12.6512 20.2144 15.7148 15.5642C17.0076 14.9948 18.3553 14.5591 19.7368 14.2639C19.8223 14.4419 19.902 14.6171 19.9675 14.7709L20.3564 15.6867L21.3419 15.5429C23.2734 15.2599 25.2357 15.2599 27.1671 15.5429L28.1498 15.6853L28.5372 14.7709C28.6042 14.6114 28.6825 14.4376 28.7651 14.2639C30.1566 14.563 31.5039 15.0045 32.7929 15.5671C35.4633 19.5834 36.8106 24.0641 36.419 29.1928C34.9075 30.2458 33.2653 31.0976 31.5338 31.7265L30.9 30.167C31.1934 30.0217 31.4897 29.8622 31.7731 29.6984C32.471 29.2968 33.2215 28.7954 33.7001 28.3169L31.8771 26.4939C31.6449 26.7274 31.1322 27.092 30.4856 27.4652C29.8532 27.8298 29.2251 28.1246 28.8235 28.2571C25.9707 29.2013 22.5169 29.2013 19.6628 28.2571C19.2625 28.1246 18.6345 27.8298 18.0021 27.4652C17.3555 27.0935 16.8428 26.7274 16.6092 26.4939L14.7862 28.3169C15.2661 28.7954 16.0181 29.2968 16.716 29.6984Z" fill="white"/>
</svg>
