<svg width="48" height="47" viewBox="0 0 48 47" fill="none" xmlns="http://www.w3.org/2000/svg">
<rect x="0.939392" width="47" height="47" rx="4" fill="#102233"/>
<path d="M12.3333 22.788C12.3333 17.4172 12.3333 14.731 14.0025 13.0633C15.6703 11.394 18.3564 11.394 23.7273 11.394H26.5758C31.9466 11.394 34.6327 11.394 36.3005 13.0633C37.9697 14.731 37.9697 17.4172 37.9697 22.788V25.6365C37.9697 31.0073 37.9697 33.6934 36.3005 35.3612C34.6327 37.0304 31.9466 37.0304 26.5758 37.0304H23.7273C18.3564 37.0304 15.6703 37.0304 14.0025 35.3612C12.3333 33.6934 12.3333 31.0073 12.3333 25.6365V22.788Z" stroke="white" stroke-width="2"/>
<path d="M31.5606 19.9395C32.7405 19.9395 33.697 18.983 33.697 17.8031C33.697 16.6232 32.7405 15.6667 31.5606 15.6667C30.3807 15.6667 29.4242 16.6232 29.4242 17.8031C29.4242 18.983 30.3807 19.9395 31.5606 19.9395Z" fill="white"/>
<path d="M25.1515 28.4849C27.5113 28.4849 29.4242 26.5719 29.4242 24.2122C29.4242 21.8524 27.5113 19.9395 25.1515 19.9395C22.7917 19.9395 20.8788 21.8524 20.8788 24.2122C20.8788 26.5719 22.7917 28.4849 25.1515 28.4849Z" stroke="white" stroke-width="2"/>
</svg>
